<svg version="1.1" id="svg1"
     xmlns:inkscape="http://www.inkscape.org/namespaces/inkscape"
     xmlns="http://www.w3.org/2000/svg"
     xmlns:svg="http://www.w3.org/2000/svg" viewBox="75 500 800 160"
     >
  <g id="layer-MC0" inkscape:groupmode="layer" inkscape:label="Layer 1">
    <path id="path1" d="M 0,0 2.464,6.389 C 2.505,6.49 2.571,6.541 2.662,6.541 2.753,6.541 2.819,6.49 2.86,6.389 L 5.111,0.091 C 5.151,-0.051 5.131,-0.183 5.05,-0.304 4.969,-0.426 4.857,-0.487 4.716,-0.487 L 3.255,-0.517 H 0.182 C 0.142,-0.497 0.101,-0.456 0.061,-0.396 -0.02,-0.274 -0.041,-0.142 0,0 m -9.507,-8.61 c 0.091,-0.142 0.228,-0.212 0.411,-0.212 h 5.111 c 0.486,0 0.811,0.222 0.973,0.669 l 0.822,2.19 c 0.141,0.385 0.415,0.578 0.821,0.578 h 8.032 c 0.405,0 0.679,-0.193 0.821,-0.578 l 0.852,-2.19 C 8.498,-8.6 8.812,-8.822 9.279,-8.822 h 5.111 c 0.182,0 0.319,0.07 0.41,0.212 0.092,0.142 0.107,0.294 0.046,0.457 L 5.902,13.994 c -0.163,0.446 -0.487,0.67 -0.974,0.67 H 0.396 c -0.487,0 -0.812,-0.224 -0.974,-0.67 L -9.553,-8.153 c -0.06,-0.163 -0.045,-0.315 0.046,-0.457 M 24.17,8.579 c 0,0.162 0.055,0.304 0.167,0.426 0.111,0.122 0.248,0.183 0.411,0.183 h 4.563 c 2.21,0 3.316,-1.055 3.316,-3.164 0,-0.913 -0.274,-1.658 -0.821,-2.236 -0.548,-0.579 -1.38,-0.867 -2.495,-0.867 h -4.563 c -0.163,0 -0.3,0.06 -0.411,0.182 C 24.225,3.225 24.17,3.366 24.17,3.529 Z M 18.876,-8.822 h 4.563 c 0.203,0 0.376,0.07 0.518,0.212 0.141,0.142 0.213,0.315 0.213,0.518 v 4.958 c 0,0.163 0.055,0.305 0.167,0.426 0.111,0.122 0.248,0.183 0.411,0.183 h 1.886 c 0.405,0 0.719,-0.163 0.943,-0.487 l 3.681,-5.202 c 0.304,-0.406 0.689,-0.608 1.156,-0.608 h 5.75 c 0.162,0 0.268,0.065 0.319,0.197 0.051,0.132 0.046,0.269 -0.015,0.411 l -4.32,5.993 c -0.223,0.324 -0.162,0.578 0.183,0.761 1.338,0.75 2.357,1.795 3.057,3.133 0.7,1.339 1.05,2.809 1.05,4.411 0,2.475 -0.751,4.523 -2.252,6.146 -1.501,1.622 -3.681,2.434 -6.54,2.434 h -10.77 c -0.203,0 -0.37,-0.072 -0.502,-0.213 -0.132,-0.143 -0.197,-0.315 -0.197,-0.517 V -8.092 c 0,-0.203 0.07,-0.376 0.212,-0.518 0.142,-0.142 0.305,-0.212 0.487,-0.212 M 191.999,8.579 c 0,0.162 0.056,0.304 0.168,0.426 0.111,0.122 0.248,0.183 0.411,0.183 h 4.563 c 2.21,0 3.316,-1.055 3.316,-3.164 0,-0.913 -0.274,-1.658 -0.822,-2.236 -0.547,-0.579 -1.379,-0.867 -2.494,-0.867 h -4.563 c -0.163,0 -0.3,0.06 -0.411,0.182 -0.112,0.122 -0.168,0.263 -0.168,0.426 z m -5.293,-17.401 h 4.563 c 0.203,0 0.375,0.07 0.517,0.212 0.142,0.142 0.213,0.315 0.213,0.518 v 4.958 c 0,0.163 0.056,0.305 0.168,0.426 0.111,0.122 0.248,0.183 0.411,0.183 h 1.886 c 0.405,0 0.719,-0.163 0.943,-0.487 l 3.681,-5.202 c 0.304,-0.406 0.689,-0.608 1.156,-0.608 h 5.75 c 0.162,0 0.268,0.065 0.319,0.197 0.051,0.132 0.046,0.269 -0.015,0.411 l -4.32,5.993 c -0.224,0.324 -0.163,0.578 0.182,0.761 1.339,0.75 2.358,1.795 3.058,3.133 0.7,1.339 1.05,2.809 1.05,4.411 0,2.475 -0.751,4.523 -2.252,6.146 -1.501,1.622 -3.681,2.434 -6.54,2.434 h -10.77 c -0.203,0 -0.37,-0.072 -0.502,-0.213 -0.132,-0.143 -0.198,-0.315 -0.198,-0.517 V -8.092 c 0,-0.203 0.071,-0.376 0.213,-0.518 0.142,-0.142 0.304,-0.212 0.487,-0.212 M 141.59,8.822 h 5.993 c 0.162,0 0.304,-0.06 0.426,-0.182 0.122,-0.122 0.183,-0.264 0.183,-0.426 V -8.092 c 0,-0.203 0.07,-0.376 0.212,-0.518 0.142,-0.142 0.315,-0.212 0.518,-0.212 h 4.563 c 0.202,0 0.375,0.07 0.517,0.212 0.142,0.142 0.213,0.315 0.213,0.518 V 8.214 c 0,0.162 0.061,0.304 0.183,0.426 0.121,0.122 0.263,0.182 0.426,0.182 h 5.993 c 0.202,0 0.37,0.071 0.502,0.213 0.131,0.142 0.197,0.315 0.197,0.518 v 4.381 c 0,0.202 -0.066,0.374 -0.197,0.517 -0.132,0.141 -0.3,0.213 -0.502,0.213 H 141.59 c -0.203,0 -0.371,-0.072 -0.502,-0.213 -0.132,-0.143 -0.198,-0.315 -0.198,-0.517 V 9.553 c 0,-0.203 0.071,-0.376 0.213,-0.518 0.142,-0.142 0.304,-0.213 0.487,-0.213 M 129.792,0 l 2.464,6.389 c 0.04,0.101 0.106,0.152 0.198,0.152 0.091,0 0.157,-0.051 0.198,-0.152 l 2.251,-6.298 c 0.04,-0.142 0.02,-0.274 -0.061,-0.395 -0.081,-0.122 -0.193,-0.183 -0.335,-0.183 l -1.46,-0.03 h -3.073 c -0.04,0.02 -0.081,0.061 -0.121,0.121 -0.082,0.122 -0.102,0.254 -0.061,0.396 m -9.096,-8.822 h 5.111 c 0.486,0 0.811,0.222 0.973,0.669 l 0.822,2.19 c 0.141,0.385 0.415,0.578 0.821,0.578 h 8.031 c 0.406,0 0.68,-0.193 0.822,-0.578 l 0.852,-2.19 c 0.162,-0.447 0.476,-0.669 0.943,-0.669 h 5.111 c 0.182,0 0.319,0.07 0.41,0.212 0.092,0.142 0.107,0.294 0.046,0.457 l -8.944,22.147 c -0.163,0.446 -0.487,0.67 -0.974,0.67 h -4.533 c -0.487,0 -0.811,-0.224 -0.973,-0.67 l -8.975,-22.147 c -0.061,-0.163 -0.045,-0.315 0.046,-0.457 0.091,-0.142 0.228,-0.212 0.411,-0.212 M -21.745,8.579 c 0,0.162 0.055,0.304 0.167,0.426 0.111,0.122 0.248,0.183 0.411,0.183 h 3.407 c 1.176,0 2.048,-0.34 2.616,-1.02 0.568,-0.679 0.852,-1.526 0.852,-2.54 0,-2.434 -1.156,-3.651 -3.468,-3.651 h -3.407 c -0.163,0 -0.3,0.061 -0.411,0.183 -0.112,0.122 -0.167,0.263 -0.167,0.426 z m -5.324,-17.401 h 4.593 c 0.203,0 0.375,0.07 0.518,0.212 0.141,0.142 0.213,0.315 0.213,0.518 v 3.985 c 0,0.162 0.055,0.304 0.167,0.426 0.111,0.122 0.248,0.182 0.411,0.182 h 3.742 c 2.981,0 5.263,0.868 6.845,2.601 1.582,1.735 2.373,3.92 2.373,6.557 0,2.535 -0.802,4.669 -2.404,6.403 -1.602,1.735 -3.874,2.602 -6.814,2.602 h -9.644 c -0.203,0 -0.371,-0.072 -0.502,-0.213 -0.132,-0.143 -0.198,-0.315 -0.198,-0.517 V -8.092 c 0,-0.203 0.071,-0.376 0.213,-0.518 0.142,-0.142 0.304,-0.212 0.487,-0.212 m 453.507,-15.207 -176.919,0.184 -3.649,0.115 c -5.113,0.344 -10.108,2.355 -14.32,5.492 -4.196,3.206 -7.625,7.596 -9.753,12.698 -2.216,5.056 -2.955,10.79 -2.541,16.34 0.576,5.539 2.379,11.009 5.467,15.479 3,4.527 7.182,8.078 11.852,10.33 2.379,1.023 4.832,1.908 7.388,2.23 1.256,0.264 2.542,0.218 3.813,0.31 l 3.414,0.023 c 2.689,0.057 5.689,-0.724 8.157,-2.241 2.482,-1.528 4.596,-3.78 6.044,-6.492 l 0.266,-0.494 0.236,-0.518 0.443,-1.057 0.385,-1.091 0.162,-0.54 0.074,-0.288 0.044,-0.207 0.015,-0.034 v -0.035 c 0.355,-0.184 1.759,0.368 1.759,0.368 l 0.162,0.127 c 1.788,1.091 3.177,2.907 3.961,4.941 0.738,2.045 0.916,4.412 0.354,6.55 -0.975,4.378 -4.936,7.664 -9.029,7.595 -1.291,0 -2.337,-0.833 -2.337,-1.861 0,-1.028 1.046,-1.862 2.337,-1.862 2.616,0.046 5.158,-2.045 5.778,-4.838 0.443,-1.631 0.207,-3.366 -0.532,-4.837 -0.354,0.701 -0.842,1.367 -1.448,2.022 -1.108,1.207 -2.202,2.436 -3.458,3.551 -1.655,1.459 -3.724,2.62 -5.985,3.447 -0.783,0.345 -1.581,0.632 -2.408,0.839 -0.828,0.253 -1.7,0.368 -2.557,0.494 -0.429,0.058 -0.857,0.069 -1.286,0.092 -0.413,0.023 -2.113,0.046 -2.334,0.046 l -3.429,-0.011 c -1.418,-0.092 -2.852,-0.069 -4.271,-0.368 -2.837,-0.345 -5.6,-1.322 -8.245,-2.482 -5.232,-2.517 -9.886,-6.47 -13.226,-11.537 -3.458,-4.988 -5.482,-11.101 -6.103,-17.295 -0.488,-6.17 0.354,-12.594 2.837,-18.236 0.867,-2.09 1.936,-4.069 3.169,-5.918 h -101.54 c -1.034,0.023 -2.039,0.299 -2.926,0.839 -1.788,1.103 -3.044,3.229 -3.088,5.47 l -0.03,13.847 v 47.211 c 0,1.21 -1.243,2.201 -2.763,2.201 -1.52,0 -2.763,-0.991 -2.763,-2.201 V 7.158 l 0.029,-14.18 c 0.118,-4.758 2.734,-9.262 6.517,-11.549 1.892,-1.172 4.064,-1.758 6.221,-1.781 h 106.944 c 0.367,-0.307 0.729,-0.618 1.106,-0.908 1.413,-1.051 2.911,-1.972 4.461,-2.781 H 119.171 c -2.719,0.035 -5.468,0.793 -7.847,2.252 -4.788,2.885 -8.084,8.596 -8.261,14.594 -0.044,0.804 -0.029,1.345 -0.029,1.942 v 59.622 c 0,1.074 -1.104,1.954 -2.453,1.954 -1.35,0 -2.453,-0.88 -2.453,-1.954 V 6.985 L 98.098,-6.85 c -0.074,-2.252 0.177,-4.344 -1.64,-5.401 -1.788,-1.034 -4.168,-0.977 -5.882,0.207 -1.803,1.16 -2.881,3.344 -2.911,5.607 0,1.216 -1.237,2.201 -2.763,2.201 -1.527,0 -2.764,-0.985 -2.764,-2.201 -0.015,-4.78 2.365,-9.468 6.148,-11.893 3.724,-2.528 6.236,-2.666 10.093,-0.436 0.945,0.528 1.817,1.218 2.6,1.987 0.562,-1.08 1.183,-2.114 1.907,-3.068 -0.902,-0.839 -1.892,-1.574 -2.941,-2.183 -4.891,-2.815 -9.901,-2.643 -14.6,0.552 -4.773,3.056 -7.803,8.997 -7.773,15.041 0,1.005 -1.022,1.819 -2.283,1.819 -1.261,0 -2.283,-0.814 -2.283,-1.819 -0.015,-2.263 -1.108,-4.447 -2.911,-5.607 -1.715,-1.184 -2.897,-1.241 -4.67,-0.207 -1.818,1.057 -3.118,3.149 -3.207,5.401 L 62.189,6.985 v 47.384 c 0,1.21 -1.244,2.201 -2.764,2.201 -1.519,0 -2.763,-0.991 -2.763,-2.201 V 6.985 c 0.03,-4.769 -0.044,-9.526 0.044,-14.283 0.207,-4.781 2.911,-9.262 6.798,-11.468 3.842,-2.23 6.384,-2.092 10.093,0.436 0.68,0.437 1.3,0.965 1.891,1.54 0.547,-1.08 1.197,-2.114 1.907,-3.08 -0.636,-0.597 -1.33,-1.137 -2.054,-1.608 -4.714,-3.195 -9.724,-3.367 -14.615,-0.552 -4.891,2.781 -8.305,8.458 -8.586,14.513 l -0.044,1.104 v 60.782 c 0,1.087 -1.117,1.977 -2.483,1.977 -1.365,0 -2.482,-0.89 -2.482,-1.977 V -1.507 c -0.015,-0.689 -0.015,-1.448 0,-2.183 v -1.643 c -0.015,-1.092 -0.03,-1.965 -0.118,-2.253 -0.37,-2.252 -0.725,-4.355 -2.749,-5.044 -0.503,-0.184 -1.035,-0.322 -1.581,-0.345 l -3.577,-0.023 -136.864,0.196 -2.924,0.08 c -3.34,0.195 -6.532,1.54 -9.295,3.562 -2.719,2.092 -4.966,4.953 -6.34,8.251 -1.448,3.263 -1.891,6.998 -1.64,10.618 0.399,3.596 1.522,7.136 3.546,10.031 1.936,2.965 4.685,5.252 7.714,6.734 1.537,0.644 3.118,1.253 4.773,1.425 0.813,0.207 1.655,0.126 2.483,0.23 l 3.355,0.011 c 0.339,0 0.428,-0.023 0.561,-0.023 0.133,-0.023 0.266,-0.011 0.399,-0.023 0.266,-0.08 0.532,-0.069 0.798,-0.172 0.517,-0.103 0.99,-0.368 1.463,-0.62 0.931,-0.575 1.729,-1.414 2.261,-2.425 l 0.103,-0.195 0.074,-0.184 0.178,-0.391 0.133,-0.414 0.044,-0.092 0.015,-0.046 0.014,-0.034 v -0.023 l 0.045,-0.207 0.103,-0.414 0.044,-0.425 0.045,-0.218 v -0.218 l 0.029,-0.437 v -7.354 h 6.724 l 1.286,0.057 0.635,0.046 0.636,0.092 1.27,0.218 1.257,0.334 0.62,0.183 0.621,0.219 1.212,0.494 1.167,0.597 0.576,0.322 0.547,0.356 c 3.694,2.31 6.561,5.999 8.187,10.285 1.611,4.309 1.906,9.135 0.768,13.605 -1.093,4.505 -3.591,8.538 -6.945,11.331 -3.34,2.861 -7.61,4.366 -11.837,4.389 -2.55,0 -4.617,-1.646 -4.617,-3.677 0,-2.031 2.067,-3.677 4.617,-3.677 5.586,0.08 10.935,-4.332 12.295,-10.284 0.754,-2.919 0.532,-6.091 -0.502,-8.895 -1.079,-2.792 -2.956,-5.228 -5.365,-6.733 l -0.354,-0.23 -0.385,-0.207 -0.753,-0.402 -0.798,-0.299 -0.399,-0.161 -0.414,-0.115 -0.813,-0.218 -0.827,-0.15 -0.414,-0.057 -0.428,-0.023 -2.04,-0.046 -0.029,0.919 -0.03,0.46 -0.059,0.448 -0.133,0.919 -0.207,0.885 -0.089,0.437 -0.147,0.436 -0.296,0.862 -0.355,0.839 -0.192,0.414 -0.207,0.402 c -2.246,4.321 -6.753,7.021 -11.289,6.895 -2.261,-0.012 -3.325,0.057 -5.572,-0.31 -2.26,-0.253 -4.403,-1.058 -6.516,-1.954 -4.123,-2 -7.818,-5.114 -10.463,-9.135 -2.748,-3.942 -4.3,-8.768 -4.817,-13.652 -0.37,-4.907 0.266,-9.986 2.231,-14.444 1.877,-4.493 4.906,-8.366 8.615,-11.204 3.724,-2.77 8.113,-4.574 12.65,-4.849 0.548,-0.028 1.705,-0.053 3.397,-0.078 9.705,-0.138 136.864,-0.221 136.864,-0.221 2.247,0 4.36,-0.127 6.503,0.758 1.625,0.575 3.132,1.563 4.403,2.804 0.547,-1.069 1.197,-2.091 1.907,-3.057 -1.537,-1.424 -3.311,-2.539 -5.232,-3.24 -1.344,-0.494 -2.763,-0.805 -4.182,-0.896 l -3.399,-0.046 -136.864,0.184 -3.649,0.115 c -5.112,0.344 -10.107,2.355 -14.319,5.492 -4.196,3.206 -7.625,7.596 -9.753,12.698 -2.216,5.056 -2.955,10.79 -2.541,16.34 0.576,5.539 2.379,11.009 5.467,15.479 3,4.527 7.182,8.078 11.852,10.33 2.379,1.023 4.832,1.908 7.388,2.23 1.256,0.264 2.542,0.218 3.813,0.31 l 3.414,0.023 c 2.689,0.057 5.689,-0.724 8.157,-2.241 2.482,-1.528 4.595,-3.78 6.044,-6.492 l 0.265,-0.494 0.237,-0.518 0.443,-1.057 0.385,-1.091 0.162,-0.54 0.074,-0.288 0.044,-0.207 0.015,-0.034 v -0.035 c 0.355,-0.184 1.759,0.368 1.759,0.368 l 0.162,0.127 c 1.788,1.091 3.177,2.907 3.961,4.941 0.738,2.045 0.916,4.412 0.354,6.55 -0.975,4.378 -4.936,7.664 -9.029,7.595 -1.291,0 -2.337,-0.833 -2.337,-1.861 0,-1.028 1.046,-1.862 2.337,-1.862 2.616,0.046 5.157,-2.045 5.778,-4.838 0.443,-1.631 0.207,-3.366 -0.532,-4.837 -0.354,0.701 -0.842,1.367 -1.448,2.022 -1.108,1.207 -2.202,2.436 -3.458,3.551 -1.655,1.459 -3.724,2.62 -5.985,3.447 -0.783,0.345 -1.581,0.632 -2.409,0.839 -0.827,0.253 -1.699,0.368 -2.556,0.494 -0.429,0.058 -0.857,0.069 -1.286,0.092 -0.413,0.023 -2.113,0.046 -2.334,0.046 l -3.429,-0.011 c -1.419,-0.092 -2.852,-0.069 -4.271,-0.368 -2.837,-0.345 -5.6,-1.322 -8.245,-2.482 -5.232,-2.517 -9.886,-6.47 -13.226,-11.537 -3.458,-4.988 -5.483,-11.101 -6.103,-17.295 -0.488,-6.17 0.354,-12.594 2.837,-18.236 2.364,-5.7 6.206,-10.595 10.876,-14.18 4.714,-3.505 10.3,-5.757 16.004,-6.136 l 5.082,-0.127 136.864,-0.184 3.606,0.058 c 1.729,0.092 3.429,0.482 5.069,1.092 2.394,0.861 4.581,2.263 6.487,4.067 1.108,-1.091 2.35,-2.034 3.709,-2.781 5.911,-3.435 13.389,-3.217 19.093,0.644 0.96,0.609 1.832,1.322 2.674,2.103 0.828,-0.781 1.7,-1.494 2.66,-2.103 5.704,-3.861 13.182,-4.079 19.108,-0.644 1.344,0.747 2.586,1.69 3.723,2.781 0.991,-0.953 2.084,-1.804 3.251,-2.516 2.882,-1.758 6.77,-2.701 10.685,-2.701 3.914,0 305.428,0.01 305.428,0.01 l 1.839,-0.01 c 1.015,0 1.839,0.824 1.839,1.839 0,1.015 -0.824,1.839 -1.839,1.839 m 6.261,11.031 -183.18,0.196 -2.925,0.08 c -3.34,0.195 -6.532,1.54 -9.295,3.562 -2.719,2.092 -4.966,4.953 -6.34,8.251 -1.448,3.263 -1.891,6.998 -1.64,10.618 0.399,3.596 1.522,7.136 3.546,10.031 1.936,2.965 4.685,5.252 7.714,6.734 1.537,0.644 3.118,1.253 4.773,1.425 0.813,0.207 1.656,0.126 2.483,0.23 l 3.355,0.011 c 0.339,0 0.428,-0.023 0.561,-0.023 0.133,-0.023 0.266,-0.011 0.399,-0.023 0.266,-0.08 0.532,-0.069 0.798,-0.172 0.517,-0.103 0.99,-0.368 1.463,-0.62 0.931,-0.575 1.729,-1.414 2.261,-2.425 l 0.103,-0.195 0.074,-0.184 0.178,-0.391 0.133,-0.414 0.044,-0.092 0.015,-0.046 0.014,-0.034 v -0.023 l 0.045,-0.207 0.103,-0.414 0.045,-0.425 0.044,-0.218 v -0.218 l 0.029,-0.437 v -7.354 h 6.724 l 1.286,0.057 0.635,0.046 0.636,0.092 1.27,0.218 1.257,0.334 0.62,0.183 0.621,0.219 1.212,0.494 1.167,0.597 0.576,0.322 0.547,0.356 c 3.695,2.31 6.561,5.999 8.187,10.285 1.611,4.309 1.906,9.135 0.768,13.605 -1.093,4.505 -3.591,8.538 -6.945,11.331 -3.34,2.861 -7.61,4.366 -11.837,4.389 -2.55,0 -4.617,-1.646 -4.617,-3.677 0,-2.031 2.067,-3.677 4.617,-3.677 5.586,0.08 10.935,-4.332 12.295,-10.284 0.754,-2.919 0.532,-6.091 -0.502,-8.895 -1.079,-2.792 -2.956,-5.228 -5.365,-6.733 l -0.354,-0.23 -0.385,-0.207 -0.753,-0.402 -0.798,-0.299 -0.399,-0.161 -0.414,-0.115 -0.813,-0.218 -0.827,-0.15 -0.414,-0.057 -0.428,-0.023 -2.04,-0.046 -0.029,0.919 -0.03,0.46 -0.059,0.448 -0.133,0.919 -0.207,0.885 -0.089,0.437 -0.147,0.436 -0.296,0.862 -0.354,0.839 -0.193,0.414 -0.206,0.402 c -2.247,4.321 -6.754,7.021 -11.29,6.895 -2.261,-0.012 -3.325,0.057 -5.571,-0.31 -2.261,-0.253 -4.404,-1.058 -6.517,-1.954 -4.123,-2 -7.818,-5.114 -10.463,-9.135 -2.748,-3.942 -4.3,-8.768 -4.817,-13.652 -0.37,-4.907 0.266,-9.986 2.231,-14.444 1.877,-4.493 4.906,-8.366 8.615,-11.204 3.724,-2.77 8.113,-4.574 12.65,-4.849 0.548,-0.028 1.705,-0.053 3.398,-0.078 9.704,-0.138 183.18,-0.221 183.18,-0.221 2.031,0 3.678,1.646 3.678,3.677 0,2.031 -1.647,3.677 -3.678,3.677 m -471.145,9.347 c -0.467,-0.284 -1.227,-0.426 -2.282,-0.426 -0.689,0 -1.267,0.035 -1.734,0.107 -0.467,0.071 -0.877,0.198 -1.232,0.38 -0.355,0.183 -0.613,0.436 -0.776,0.761 -0.182,0.324 -0.345,0.537 -0.486,0.639 -0.142,0.101 -0.386,0.152 -0.73,0.152 h -4.077 c -0.183,0 -0.36,-0.092 -0.532,-0.274 -0.173,-0.183 -0.249,-0.376 -0.229,-0.578 0.102,-1.014 0.401,-1.886 0.898,-2.616 0.497,-0.731 1.212,-1.4 2.145,-2.008 1.845,-1.177 4.137,-1.765 6.875,-1.765 2.779,0 5.03,0.609 6.754,1.825 1.724,1.217 2.586,2.941 2.586,5.172 0,0.69 -0.117,1.359 -0.35,2.008 -0.234,0.649 -0.502,1.202 -0.806,1.658 -0.305,0.457 -0.741,0.913 -1.308,1.369 -0.569,0.456 -1.065,0.816 -1.491,1.08 -0.406,0.264 -0.964,0.558 -1.673,0.882 -0.731,0.305 -1.268,0.528 -1.613,0.67 -0.467,0.162 -0.984,0.344 -1.551,0.547 -1.501,0.528 -2.525,0.943 -3.073,1.248 -0.548,0.304 -0.821,0.679 -0.821,1.125 0,0.446 0.243,0.826 0.73,1.141 0.487,0.314 1.201,0.472 2.144,0.472 0.944,0 1.709,-0.183 2.297,-0.548 0.568,-0.345 0.954,-0.72 1.156,-1.126 0.284,-0.486 0.629,-0.73 1.035,-0.73 h 4.168 c 0.223,0 0.415,0.092 0.578,0.274 0.162,0.183 0.233,0.375 0.213,0.578 -0.082,1.034 -0.35,1.921 -0.807,2.662 -0.456,0.74 -1.13,1.445 -2.023,2.114 -1.764,1.319 -4.005,1.978 -6.723,1.978 -2.718,0 -4.928,-0.665 -6.632,-1.993 -1.704,-1.328 -2.556,-3.098 -2.556,-5.308 0,-0.913 0.188,-1.765 0.563,-2.556 0.375,-0.791 0.827,-1.44 1.354,-1.947 0.527,-0.507 1.227,-0.994 2.099,-1.46 0.852,-0.467 1.602,-0.822 2.252,-1.065 0.628,-0.243 1.419,-0.528 2.372,-0.852 1.481,-0.507 2.515,-0.938 3.103,-1.293 0.589,-0.355 0.883,-0.776 0.883,-1.262 0,-0.406 -0.234,-0.751 -0.7,-1.035 M -64.275,6.541 c 0.091,0 0.157,-0.051 0.198,-0.152 l 2.251,-6.298 c 0.04,-0.142 0.02,-0.274 -0.061,-0.395 -0.081,-0.122 -0.193,-0.183 -0.335,-0.183 l -1.46,-0.03 h -3.073 c -0.04,0.02 -0.081,0.061 -0.121,0.121 -0.081,0.122 -0.102,0.254 -0.061,0.396 l 2.464,6.389 c 0.041,0.101 0.107,0.152 0.198,0.152 m -3.24,7.453 -8.975,-22.147 c -0.06,-0.163 -0.045,-0.315 0.046,-0.457 0.091,-0.142 0.228,-0.212 0.411,-0.212 h 5.111 c 0.486,0 0.811,0.222 0.973,0.669 l 0.822,2.19 c 0.141,0.385 0.415,0.578 0.821,0.578 h 8.032 c 0.405,0 0.679,-0.193 0.821,-0.578 l 0.852,-2.19 c 0.162,-0.447 0.476,-0.669 0.943,-0.669 h 5.111 c 0.182,0 0.319,0.07 0.41,0.212 0.092,0.142 0.107,0.294 0.046,0.457 l -8.944,22.147 c -0.163,0.446 -0.487,0.67 -0.974,0.67 h -4.533 c -0.486,0 -0.811,-0.224 -0.973,-0.67 M 165.456,-8.822 h 16.611 c 0.182,0 0.344,0.07 0.486,0.212 0.142,0.142 0.213,0.315 0.213,0.518 v 3.955 c 0,0.202 -0.071,0.375 -0.213,0.517 -0.142,0.141 -0.304,0.213 -0.486,0.213 h -10.709 c -0.163,0 -0.304,0.061 -0.426,0.182 -0.122,0.122 -0.183,0.264 -0.183,0.426 v 2.738 c 0,0.162 0.061,0.304 0.183,0.426 0.122,0.122 0.263,0.183 0.426,0.183 h 8.549 c 0.202,0 0.375,0.07 0.517,0.213 0.142,0.141 0.213,0.314 0.213,0.517 v 3.103 c 0,0.202 -0.071,0.375 -0.213,0.517 -0.142,0.142 -0.315,0.213 -0.517,0.213 h -8.549 c -0.163,0 -0.304,0.056 -0.426,0.167 -0.122,0.111 -0.183,0.248 -0.183,0.411 v 2.525 c 0,0.162 0.061,0.304 0.183,0.426 0.122,0.122 0.263,0.182 0.426,0.182 h 10.709 c 0.182,0 0.344,0.071 0.486,0.213 0.142,0.142 0.213,0.315 0.213,0.518 v 4.381 c 0,0.202 -0.071,0.374 -0.213,0.517 -0.142,0.141 -0.304,0.213 -0.486,0.213 h -16.611 c -0.203,0 -0.37,-0.072 -0.502,-0.213 -0.132,-0.143 -0.198,-0.315 -0.198,-0.517 V -8.092 c 0,-0.203 0.066,-0.376 0.198,-0.518 0.132,-0.142 0.299,-0.212 0.502,-0.212 m 194.699,8.366 2.464,6.388 c 0.041,0.102 0.107,0.152 0.198,0.152 0.092,0 0.157,-0.05 0.198,-0.152 l 2.251,-6.297 c 0.041,-0.142 0.02,-0.274 -0.061,-0.396 -0.081,-0.121 -0.193,-0.182 -0.334,-0.182 l -1.46,-0.031 h -3.073 c -0.041,0.02 -0.082,0.061 -0.122,0.122 -0.081,0.122 -0.102,0.253 -0.061,0.396 m -9.507,-8.61 c 0.091,-0.142 0.228,-0.213 0.411,-0.213 h 5.111 c 0.487,0 0.811,0.223 0.973,0.669 l 0.822,2.191 c 0.142,0.385 0.415,0.578 0.821,0.578 h 8.032 c 0.405,0 0.679,-0.193 0.821,-0.578 l 0.852,-2.191 c 0.162,-0.446 0.476,-0.669 0.943,-0.669 h 5.111 c 0.183,0 0.319,0.071 0.411,0.213 0.091,0.142 0.106,0.294 0.045,0.456 l -8.944,22.148 c -0.162,0.446 -0.486,0.669 -0.973,0.669 h -4.533 c -0.487,0 -0.812,-0.223 -0.974,-0.669 L 350.603,-8.61 c -0.061,-0.162 -0.046,-0.314 0.045,-0.456 m -46.579,-0.213 h 4.564 c 0.202,0 0.37,0.071 0.502,0.213 0.132,0.142 0.198,0.314 0.198,0.517 V 2.16 c 0,0.081 0.035,0.132 0.106,0.152 0.071,0.02 0.126,-0.01 0.167,-0.091 l 4.29,-8.579 c 0.243,-0.426 0.588,-0.639 1.034,-0.639 h 2.525 c 0.446,0 0.791,0.213 1.035,0.639 l 4.289,8.579 c 0.02,0.081 0.071,0.111 0.152,0.091 0.081,-0.02 0.122,-0.071 0.122,-0.152 V -8.549 c 0,-0.203 0.071,-0.375 0.213,-0.517 0.142,-0.142 0.304,-0.213 0.487,-0.213 h 4.563 c 0.202,0 0.375,0.071 0.517,0.213 0.142,0.142 0.213,0.314 0.213,0.517 v 22.026 c 0,0.203 -0.071,0.375 -0.213,0.517 -0.142,0.142 -0.315,0.213 -0.517,0.213 h -4.624 c -0.446,0 -0.791,-0.213 -1.035,-0.639 l -6.206,-12.29 c -0.061,-0.122 -0.152,-0.183 -0.274,-0.183 -0.121,0 -0.212,0.061 -0.273,0.183 l -6.176,12.29 c -0.224,0.426 -0.568,0.639 -1.034,0.639 h -4.625 c -0.203,0 -0.37,-0.071 -0.501,-0.213 -0.133,-0.142 -0.198,-0.314 -0.198,-0.517 V -8.549 c 0,-0.203 0.065,-0.375 0.198,-0.517 0.131,-0.142 0.298,-0.213 0.501,-0.213 M 338.31,8.123 c 0,0.162 0.055,0.304 0.167,0.426 0.111,0.121 0.248,0.182 0.411,0.182 h 3.407 c 1.176,0 2.048,-0.34 2.616,-1.019 0.568,-0.68 0.852,-1.526 0.852,-2.54 0,-2.434 -1.156,-3.651 -3.468,-3.651 h -3.407 c -0.163,0 -0.3,0.061 -0.411,0.183 -0.112,0.121 -0.167,0.263 -0.167,0.425 z m -5.324,-17.402 h 4.594 c 0.202,0 0.374,0.071 0.517,0.213 0.141,0.142 0.213,0.314 0.213,0.517 v 3.986 c 0,0.162 0.055,0.304 0.167,0.425 0.111,0.122 0.248,0.183 0.411,0.183 h 3.742 c 2.981,0 5.262,0.867 6.844,2.601 1.583,1.734 2.373,3.919 2.373,6.556 0,2.535 -0.801,4.67 -2.403,6.404 -1.602,1.734 -3.874,2.601 -6.814,2.601 h -9.644 c -0.203,0 -0.371,-0.071 -0.502,-0.213 -0.132,-0.142 -0.198,-0.314 -0.198,-0.517 V -8.549 c 0,-0.203 0.071,-0.375 0.213,-0.517 0.142,-0.142 0.304,-0.213 0.487,-0.213 m 45.991,0 h 4.564 c 0.202,0 0.375,0.071 0.517,0.213 0.142,0.142 0.213,0.314 0.213,0.517 V 3.225 c 0,0.061 0.02,0.111 0.061,0.152 0.04,0.04 0.091,0.061 0.152,0.061 0.061,0 0.111,-0.031 0.152,-0.092 l 9.644,-12.047 c 0.284,-0.385 0.679,-0.578 1.186,-0.578 h 3.621 c 0.202,0 0.375,0.071 0.517,0.213 0.141,0.142 0.213,0.314 0.213,0.517 v 22.026 c 0,0.203 -0.072,0.375 -0.213,0.517 -0.142,0.142 -0.315,0.213 -0.517,0.213 h -4.534 c -0.202,0 -0.375,-0.071 -0.517,-0.213 -0.142,-0.142 -0.212,-0.314 -0.212,-0.517 V 1.673 c 0,-0.061 -0.021,-0.117 -0.061,-0.167 -0.041,-0.051 -0.092,-0.071 -0.152,-0.061 -0.061,0.01 -0.112,0.046 -0.153,0.107 l -9.644,12.077 c -0.284,0.385 -0.679,0.578 -1.186,0.578 h -3.651 c -0.203,0 -0.37,-0.071 -0.501,-0.213 -0.133,-0.142 -0.198,-0.314 -0.198,-0.517 V -8.549 c 0,-0.203 0.07,-0.375 0.213,-0.517 0.141,-0.142 0.304,-0.213 0.486,-0.213 M 283.154,7.438 c 1.237,1.248 2.738,1.871 4.503,1.871 1.804,0 3.32,-0.619 4.548,-1.856 1.226,-1.237 1.84,-2.748 1.84,-4.532 0,-1.785 -0.614,-3.297 -1.84,-4.533 -1.228,-1.238 -2.744,-1.856 -4.548,-1.856 -1.765,0 -3.266,0.624 -4.503,1.871 -1.237,1.247 -1.856,2.753 -1.856,4.518 0,1.764 0.619,3.27 1.856,4.517 m -7.94,-4.517 c 0,-3.347 1.227,-6.217 3.681,-8.61 2.454,-2.393 5.374,-3.59 8.762,-3.59 3.427,0 6.363,1.197 8.807,3.59 2.444,2.393 3.666,5.263 3.666,8.61 0,3.346 -1.222,6.216 -3.666,8.609 -2.444,2.393 -5.38,3.59 -8.807,3.59 -3.388,0 -6.308,-1.197 -8.762,-3.59 -2.454,-2.393 -3.681,-5.263 -3.681,-8.609 M 411.69,-0.152 c 0.223,-0.325 0.335,-0.7 0.335,-1.126 v -7.271 c 0,-0.203 0.071,-0.375 0.213,-0.517 0.141,-0.142 0.314,-0.213 0.517,-0.213 h 4.533 c 0.202,0 0.375,0.071 0.517,0.213 0.142,0.142 0.213,0.314 0.213,0.517 v 7.271 c 0,0.426 0.111,0.801 0.335,1.126 l 8.579,13.751 c 0.101,0.141 0.111,0.278 0.03,0.41 -0.081,0.132 -0.203,0.198 -0.365,0.198 h -5.658 c -0.487,0 -0.852,-0.203 -1.096,-0.608 L 415.31,6.206 c -0.06,-0.122 -0.162,-0.182 -0.304,-0.182 -0.142,0 -0.243,0.06 -0.304,0.182 l -4.503,7.362 c -0.223,0.426 -0.588,0.639 -1.095,0.639 h -5.628 c -0.163,0 -0.284,-0.066 -0.365,-0.198 -0.081,-0.132 -0.071,-0.269 0.031,-0.41 z"
	  style="fill:#00325a;fill-opacity:1;fill-rule:nonzero;stroke:none"
	  transform="matrix(1.3333333,0,0,-1.3333333,263.13587,603.0324)"
	  clip-path="url(#clipPath2)">
    </path>
  </g>
</svg>
